<?xml version="1.0" standalone="no"?>
<!DOCTYPE svg PUBLIC "-//W3C//DTD SVG 20010904//EN"
 "http://www.w3.org/TR/2001/REC-SVG-20010904/DTD/svg10.dtd">
<svg version="1.0" xmlns="http://www.w3.org/2000/svg"
 width="700.000000pt" height="700.000000pt" viewBox="0 0 700.000000 700.000000"
 preserveAspectRatio="xMidYMid meet">
<metadata>
Created by potrace 1.11, written by Peter Selinger 2001-2013
</metadata>
<g transform="translate(0.000000,700.000000) scale(0.100000,-0.100000)"
fill="#000000" stroke="none">
<path d="M3278 6995 c-1 -1 -38 -5 -80 -9 -109 -9 -218 -24 -333 -47 -55 -11
-111 -23 -125 -25 -14 -3 -43 -10 -65 -16 -22 -6 -44 -12 -50 -13 -60 -13
-337 -107 -410 -140 -160 -71 -342 -163 -430 -218 -263 -163 -434 -296 -636
-497 -301 -298 -500 -578 -680 -955 -32 -68 -59 -127 -59 -130 0 -3 -9 -25
-19 -48 -17 -38 -87 -230 -97 -267 -79 -297 -110 -454 -131 -669 -10 -97 -10
-536 -1 -621 16 -142 20 -169 38 -277 40 -232 131 -539 220 -738 26 -60 136
-279 167 -335 96 -174 327 -490 451 -616 13 -14 11 -22 -36 -124 -16 -36 -80
-177 -142 -315 -61 -137 -120 -268 -130 -290 -10 -22 -39 -87 -65 -145 -26
-58 -60 -133 -76 -167 -59 -126 -71 -164 -63 -207 11 -69 73 -125 137 -126 24
0 236 47 357 80 19 5 82 21 140 34 58 14 191 46 295 71 272 66 567 136 589
141 19 3 62 14 328 79 80 20 157 34 170 31 12 -2 57 -13 98 -25 76 -21 287
-64 370 -76 181 -27 294 -35 495 -35 170 0 303 8 425 26 19 2 49 6 65 9 28 4
175 30 222 39 41 8 216 57 293 81 515 161 1002 462 1388 857 44 46 96 101 114
123 18 21 41 48 51 58 11 10 60 74 111 140 203 268 375 588 486 902 28 79 86
272 94 310 2 11 14 67 26 125 12 58 24 114 26 124 2 11 6 40 9 65 3 25 7 56
10 69 19 100 28 621 12 732 -3 25 -9 71 -12 104 -8 68 -14 109 -32 206 -73
402 -245 831 -482 1200 -50 79 -157 228 -170 240 -3 3 -33 39 -66 80 -81 102
-309 330 -425 427 -211 174 -421 312 -665 435 -318 161 -722 282 -1075 323
-30 4 -68 8 -85 11 -35 5 -541 14 -547 9z"/>
</g>
</svg>
